<?xml version="1.0" encoding="UTF-8"?>
<svg width="89px" height="20px" viewBox="0 0 89 20" version="1.1" xmlns="http://www.w3.org/2000/svg" xmlns:xlink="http://www.w3.org/1999/xlink">
    <!-- Generator: Sketch 48.2 (47327) - http://www.bohemiancoding.com/sketch -->
    <title>logo</title>
    <desc>Created with Sketch.</desc>
    <defs></defs>
    <g id="Портфолио" stroke="none" stroke-width="1" fill="none" fill-rule="evenodd" transform="translate(-1261.000000, -2196.000000)">
        <g id="footer" transform="translate(0.000000, 2168.000000)" fill="#000000">
            <g id="logo" transform="translate(1261.000000, 28.000000)">
                <path d="M10.7727078,0.5 L0.796954733,0.5 C0.311967078,0.5 0,0.782128316 0,1.27585287 L0,19.2241471 C0,19.7178717 0.311967078,20 0.796954733,20 L3.11777778,20 C3.60276543,20 3.91435391,19.6827984 3.91435391,19.1890738 L3.91435391,12.101178 C3.91435391,11.8190497 3.98363786,11.8190497 4.08737449,11.8190497 L9.59488066,11.8190497 C10.0454156,11.8190497 10.3225514,11.501848 10.3225514,11.0081235 L10.3225514,8.99815195 C10.3225514,8.5044274 10.0454156,8.18722576 9.59488066,8.18722576 L4.05292181,8.18722576 L3.91435391,8.18722576 L3.91435391,8.01070285 L3.91435391,4.20235601 C3.91435391,4.0967506 3.91435391,4.06167727 4.08737449,4.06167727 L10.7727078,4.06167727 C11.2228642,4.06167727 11.5,3.74409021 11.5,3.25036566 L11.5,1.24039412 C11.5,0.782128316 11.2228642,0.5 10.7727078,0.5" id="Fill-2"></path>
                <path d="M22.5548834,7.69350121 C22.3436279,8.18722576 21.9915355,8.61041823 21.5690246,8.9626932 C21.5340078,8.99815195 21.4635893,8.99815195 21.358154,9.06868403 C21.2523339,9.10414278 21.1819154,9.10414278 21.1114969,9.10414278 L18.1543055,9.10414278 L18.0134686,9.10414278 C18.0134686,9.10414278 17.9780669,9.0336107 17.9780669,8.92761988 L17.9780669,4.27288809 C17.9780669,4.13182393 18.0134686,4.0967506 18.0134686,4.0967506 C18.0134686,4.0967506 18.0838871,4.06167727 18.1893224,4.06167727 L20.5481491,4.06167727 C21.358154,4.06167727 21.9565187,4.27288809 22.3436279,4.73153931 C22.731122,5.18980512 22.9069758,5.75406175 22.9069758,6.45938254 C22.9069758,6.81204293 22.7661388,7.2352354 22.5548834,7.69350121 M26.1808579,16.3677906 L26.1458411,16.2972586 C25.7587318,15.4863324 25.4416563,14.7810116 25.1603671,14.1466083 C24.8432916,13.5118196 24.6320361,12.9830217 24.4207807,12.5949026 C24.2449269,12.2422422 24.1741236,12.101178 24.1741236,12.0306459 L24.1391068,11.9601138 C24.1040899,11.8895818 24.1040899,11.8545084 24.1391068,11.8190497 C24.8786932,11.1491877 25.5120747,10.3382615 26.0754226,9.42134443 C26.6387704,8.46935407 26.9204443,7.41137289 26.9204443,6.28285963 C26.9204443,4.48448433 26.3924981,3.03876942 25.3008193,2.01624699 C24.2449269,0.993724552 22.731122,0.5 20.7948062,0.5 L14.7392016,0.5 C14.2816739,0.5 14,0.782128316 14,1.27585287 L14,19.2946792 C14,19.7533304 14.3170756,20 14.8100049,20 L17.13343,20 C17.9076485,20 17.9780669,19.4712021 17.9780669,19.2596059 L17.9780669,12.77104 C17.9780669,12.7008934 17.9780669,12.6654346 18.0134686,12.7008934 L20.0552197,12.7008934 C20.1960567,12.7008934 20.1960567,12.7359667 20.1960567,12.77104 L23.0124111,19.1890738 C23.1182312,19.4357434 23.2590682,19.6118809 23.4353068,19.7533304 C23.6111606,19.9294679 23.9278513,20 24.4207807,20 L26.7442057,20 C27.0962981,20 27.3075536,19.8589358 27.3779721,19.7178717 C27.4837922,19.5768075 27.5892275,19.3297525 27.3779721,18.9420188 C26.9908628,18.0605605 26.5683519,17.2141756 26.1808579,16.3677906" id="Fill-3"></path>
                <path d="M41.7589211,16.3681043 L34.7705587,16.3681043 C34.5587668,16.3681043 34.4881695,16.3330303 34.4881695,16.3330303 C34.4881695,16.3330303 34.4530637,16.2975708 34.4530637,16.1565039 L34.4530637,11.9248809 C34.4530637,11.783814 34.4881695,11.7487399 34.4881695,11.7487399 C34.4881695,11.7487399 34.523661,11.7132805 34.6648557,11.7132805 L40.3824664,11.7132805 C40.8415418,11.7132805 41.1239311,11.4311466 41.1239311,10.9377977 L41.1239311,8.96286047 C41.1239311,8.46912616 40.8415418,8.15191825 40.3824664,8.15191825 L34.7350672,8.15191825 C34.5587668,8.15191825 34.4881695,8.1164588 34.4881695,7.86978436 L34.4881695,4.20242919 L34.4881695,4.09682169 C34.4881695,4.09682169 34.5587668,4.06136224 34.7350672,4.06136224 L41.6177265,4.06136224 C42.0768019,4.06136224 42.3591912,3.74415433 42.3591912,3.25042002 L42.3591912,1.24040875 C42.3591912,0.887741387 42.2176108,0.746674441 42.1119077,0.641066946 C41.970713,0.535074022 41.7944127,0.5 41.5822349,0.5 L31.3116762,0.5 C30.817495,0.5 30.5,0.782133892 30.5,1.27548277 L30.5,19.2245172 C30.5,19.7178661 30.817495,20 31.3116762,20 L41.7589211,20 C42.2176108,20 42.5,19.6827921 42.5,19.1890578 L42.5,17.1439725 C42.5,16.6853122 42.2176108,16.3681043 41.7589211,16.3681043" id="Fill-4"></path>
                <path d="M56.5361685,9.89379845 C55.9750738,9.46821705 55.3442255,9.07829457 54.6075971,8.79457364 C53.9062287,8.51085271 53.2401204,8.2624031 52.6088888,8.01434109 C52.2934647,7.90775194 51.9427805,7.76589147 51.5572195,7.6244186 C51.2065353,7.48217054 50.8558511,7.30503876 50.5753038,7.12790698 C50.2947564,6.9503876 50.0494691,6.70232558 49.8386753,6.45387597 C49.6635249,6.20581395 49.558128,5.95736434 49.558128,5.63837209 C49.558128,4.82286822 49.7689218,4.29069767 50.2598796,4.00697674 C51.1363985,3.43992248 52.3636015,3.36899225 53.6609414,3.82984496 C54.2569129,4.04263566 54.8528844,4.29069767 55.4139791,4.61007752 C55.6596497,4.71627907 55.8700602,4.75193798 56.0804707,4.71627907 C56.325758,4.68100775 56.5012917,4.53914729 56.6411821,4.29069767 L57.4126874,2.83682171 C57.5882211,2.58875969 57.6583579,2.34031008 57.6932347,2.16317829 C57.6932347,1.91511628 57.5882211,1.70232558 57.2724137,1.48953488 C56.5012917,0.993023256 55.6596497,0.602713178 54.7478708,0.354651163 C53.8364751,0.106589147 52.8545594,0 51.8377669,0 C50.9961248,0 50.1893595,0.141860465 49.4531144,0.389922481 C48.7168692,0.638372093 48.0503776,1.02829457 47.4896661,1.5248062 C46.9285714,2.02131783 46.4728736,2.62403101 46.1221894,3.33333333 C45.806382,4.04263566 45.6312315,4.82286822 45.6312315,5.70930233 C45.6312315,6.56046512 45.806382,7.34069767 46.0869294,7.94341085 C46.4027368,8.54612403 46.7882978,9.07829457 47.2792556,9.53914729 C47.7698302,9.96472868 48.3309249,10.3193798 48.9272797,10.6031008 C49.5232512,10.8868217 50.1192227,11.1348837 50.7155774,11.3476744 C51.2414121,11.5248062 51.76763,11.7375969 52.2582046,11.9151163 C52.7142857,12.0922481 53.1347235,12.3050388 53.4857909,12.5531008 C53.8364751,12.7662791 54.0817624,13.05 54.2569129,13.3333333 C54.4324466,13.6170543 54.5374603,13.9364341 54.5374603,14.2906977 C54.5374603,14.9290698 54.3270497,15.4255814 53.8713519,15.8155039 C53.4152708,16.2410853 52.6790257,16.4186047 51.6269731,16.4186047 C51.0662616,16.4186047 50.4350301,16.2767442 49.6987849,15.9930233 C48.9974165,15.7093023 48.366185,15.3546512 47.8403503,14.8937984 C47.5946798,14.7162791 47.4195293,14.5744186 47.2439956,14.5391473 C46.9987083,14.4682171 46.753421,14.5744186 46.5077504,14.8581395 L45.3158074,16.2410853 C45.0701368,16.5248062 45,16.7732558 45,16.9860465 C45.03526,17.1988372 45.1751505,17.4116279 45.385561,17.5887597 C46.1923263,18.4046512 47.1738587,19.0426357 48.2960481,19.4325581 C49.4182376,19.8228682 50.5400437,20 51.6974932,20 C52.6441489,20 53.5206677,19.8581395 54.3623098,19.6100775 C55.2035686,19.3620155 55.940197,18.9717054 56.5361685,18.4751938 C57.1325233,17.9786822 57.6230979,17.3403101 57.9737821,16.6313953 C58.3244663,15.922093 58.5,15.0709302 58.5,14.1135659 C58.5,13.1205426 58.3244663,12.2693798 57.9389053,11.5957364 C57.5882211,10.922093 57.0972632,10.3546512 56.5361685,9.89379845" id="Fill-5"></path>
                <path d="M73.0029583,15.8376867 L71.1615888,14.7088193 C70.8430837,14.5326265 70.5597961,14.5326265 70.3825478,14.7442892 L70.0288253,15.0970602 C69.7099332,15.4849157 69.2853888,15.8026024 68.8248529,16.0848193 C68.3647041,16.3315663 67.8689507,16.4726747 67.3375929,16.4726747 C66.558939,16.4726747 65.9567593,16.261012 65.5318279,15.8727711 C65.1072835,15.4498313 64.9300352,14.9559518 64.9300352,14.3915181 L64.9300352,5.8906988 C64.9300352,5.25571084 65.1425009,4.76183133 65.5318279,4.30342169 C65.9215419,3.84501205 66.5233345,3.6333494 67.3023755,3.6333494 C68.4707434,3.6333494 69.3562107,4.09175904 70.0288253,5.04404819 C70.1348647,5.25571084 70.3121129,5.39681928 70.5245786,5.46737349 C70.7722618,5.57301205 70.9847275,5.53792771 71.2680151,5.36173494 L72.9321364,4.09175904 C73.1802066,3.91556627 73.3214634,3.73898795 73.3570678,3.49224096 C73.3570678,3.28057831 73.2862459,3.06891566 73.1802066,2.92780723 C72.3655612,1.79893976 71.4448764,0.987759036 70.4181523,0.599903614 C69.4266456,0.211662651 68.3290996,0 67.2315536,0 C66.3464733,0 65.4966104,0.141108434 64.7531739,0.423325301 C64.0093504,0.705542169 63.3367358,1.09339759 62.7705476,1.58727711 C62.2039724,2.08115663 61.7790409,2.68106024 61.4601489,3.38621687 C61.1416438,4.09175904 61,4.90293976 61,5.74959036 L61,14.2858795 C61,15.1676145 61.1416438,15.9433253 61.4601489,16.6843373 C61.7790409,17.389494 62.2039724,17.9893976 62.7705476,18.4832771 C63.3367358,18.9771566 64.0093504,19.365012 64.7883914,19.6121446 C65.5674323,19.8939759 66.4172952,20 67.3375929,20 C68.5415653,20 69.6747158,19.7528675 70.7014399,19.2944578 C71.728164,18.8360482 72.6488488,18.0244819 73.3922853,16.8605301 C73.4987116,16.6488675 73.5339291,16.4372048 73.4631072,16.2255422 C73.3214634,16.1199036 73.1802066,15.9433253 73.0029583,15.8376867" id="Fill-6"></path>
                <path d="M84.9461421,14.1592509 C84.9461421,14.7964869 84.73644,15.3277103 84.2822765,15.7873559 C83.8281131,16.2125667 83.2337662,16.4245918 82.4300993,16.4245918 C81.5912911,16.4245918 80.9621849,16.2125667 80.5080214,15.7873559 C80.0886173,15.3629188 79.8789152,14.8316954 79.8789152,14.1592509 L79.8789152,5.94676159 C79.8789152,5.27431711 80.0886173,4.74348062 80.5431627,4.31865666 C80.9621849,3.8938327 81.6264324,3.64621218 82.4648587,3.64621218 C83.3036669,3.64621218 83.9327731,3.85823725 84.3521772,4.31865666 C84.7715814,4.77868916 84.9812834,5.30991256 84.9812834,5.98235704 L84.9812834,14.1592509 L84.9461421,14.1592509 Z M88.4407945,3.4338002 C88.0912911,2.69016482 87.6371276,2.08852434 87.0431627,1.55768784 C86.4488159,1.06205989 85.749809,0.672831386 84.9812834,0.389615414 C84.2123759,0.141607986 83.3388083,0 82.4648587,0 C81.5561497,0 80.6825821,0.141607986 79.9140565,0.389615414 C79.1100076,0.672831386 78.4113827,1.06205989 77.8521772,1.55768784 C77.2582124,2.08852434 76.8036669,2.72576027 76.4893048,3.4338002 C76.1745607,4.17704867 76,4.99110114 76,5.87595759 L76,14.1592509 C76,15.0797029 76.1745607,15.9293508 76.5240642,16.6370038 C76.8735676,17.3806392 77.3281131,17.9822797 77.9220779,18.4779076 C78.5160428,18.9735356 79.1799083,19.3627641 79.9839572,19.6103846 C80.7524828,19.858392 81.6264324,20 82.5351413,20 C83.4434683,20 84.3174179,19.858392 85.0859435,19.6103846 C85.8896104,19.3271686 86.5538579,18.9379401 87.1478228,18.4423122 C87.7070283,17.9470711 88.1963331,17.3098352 88.5106952,16.5665867 C88.8254393,15.8229513 89,15.0088989 89,14.1240424 L89,5.91155304 C88.9300993,4.99110114 88.7555386,4.14145322 88.4407945,3.4338002 Z" id="Fill-7"></path>
            </g>
        </g>
    </g>
</svg>